<?xml version="1.0" encoding="UTF-8"?>
<svg xmlns="http://www.w3.org/2000/svg" xmlns:xlink="http://www.w3.org/1999/xlink" width="700" height="700" viewBox="0 0 700 700">
  <defs>
    <linearGradient id="linear-gradient" x1="424.06308" y1="334.74218" x2="472.19301" y2="334.74218" gradientUnits="userSpaceOnUse">
      <stop offset="0" stop-color="#4b3176"></stop>
      <stop offset="1" stop-color="#f95461"></stop>
    </linearGradient>
    <linearGradient id="linear-gradient-2" x1="388.79907" y1="340.89196" x2="276.83907" y2="301.29196" xlink:href="#linear-gradient"></linearGradient>
  </defs>
  <title>ns1-DEVOPS</title>
  <g id="DEVOPS">
    <g>
      <circle cx="350" cy="350" r="256" style="fill: #d1efed"></circle>
      <path id="Rounded_Rectangle_16_copy_2" data-name="Rounded Rectangle 16 copy 2" d="M256.29929,338.73279a9.94,9.94,0,0,1-9.85719,9.85332l-151.21579.92917a9.6882,9.6882,0,0,1-9.75575-9.61793q-.00078-.07434,0-.14867a9.94183,9.94183,0,0,1,9.86132-9.85332l151.21165-.92917a9.66162,9.66162,0,0,1,9.75576,9.56838Q256.30044,338.63368,256.29929,338.73279Z" style="fill: #4ccdb9;fill-rule: evenodd"></path>
      <path id="Rounded_Rectangle_17_copy_4" data-name="Rounded Rectangle 17 copy 4" d="M232.75776,296.5733l-32.24009.16931a9.72521,9.72521,0,0,1-9.75576-9.69639v-.0702a9.91374,9.91374,0,0,1,9.86132-9.85332l32.23571-.16932a9.64929,9.64929,0,0,1,9.7555,9.5436c.00051.06194.00077.11976.00025.1817A9.97752,9.97752,0,0,1,232.75776,296.5733Z" style="fill: #4ccdb9;fill-rule: evenodd"></path>
      <path id="Rounded_Rectangle_18_copy_2" data-name="Rounded Rectangle 18 copy 2" d="M63.2229,334.79724l.15228.16932a9.79377,9.79377,0,0,1-13.866,13.826l-.15641-.128A9.80669,9.80669,0,0,1,63.2229,334.79724Z" style="fill: #f95461;fill-rule: evenodd"></path>
      <path id="Rounded_Rectangle_18_copy_3" data-name="Rounded Rectangle 18 copy 3" d="M173.17042,279.82348l.15228.16932a9.7938,9.7938,0,0,1-13.87043,13.826l-.15228-.128a9.80678,9.80678,0,0,1,13.87043-13.86733Z" style="fill: #4b3176;fill-rule: evenodd"></path>
      <path id="Rounded_Rectangle_17" data-name="Rounded Rectangle 17" d="M325.94669,444.02621l-50.745.2519a9.66452,9.66452,0,0,1-9.75989-9.5725c-.00077-.06607-.00077-.128,0-.19409a9.94184,9.94184,0,0,1,9.86132-9.85332l50.745-.25191a9.68706,9.68706,0,0,1,9.75989,9.6138c.00052.05369.00052.10324,0,.1528A9.93726,9.93726,0,0,1,325.94669,444.02621Z" style="fill: #4b3176;fill-rule: evenodd"></path>
      <path id="Rounded_Rectangle_17_copy" data-name="Rounded Rectangle 17 copy" d="M187.94841,397.51l-50.745.25191a9.66453,9.66453,0,0,1-9.75989-9.57251c-.00077-.06607-.00077-.128,0-.19409a9.94184,9.94184,0,0,1,9.86132-9.85332l50.745-.25191a9.68706,9.68706,0,0,1,9.75989,9.6138c.00052.05369.00052.10324,0,.1528A9.93726,9.93726,0,0,1,187.94841,397.51Z" style="fill: #4b3176;fill-rule: evenodd"></path>
      <path id="Rounded_Rectangle_16_copy_3" data-name="Rounded Rectangle 16 copy 3" d="M369.49012,385.71157a9.91576,9.91576,0,0,1-9.86132,9.85332l-127.60689.54924a9.66317,9.66317,0,0,1-9.75989-9.56425c-.00077-.06607-.00077-.13627,0-.20235a9.94185,9.94185,0,0,1,9.86132-9.85332l127.6069-.54924a9.724,9.724,0,0,1,9.75988,9.69226Z" style="fill: #ffc76b;fill-rule: evenodd"></path>
      <path d="M473.898,321.65019c-.02263,0-.04465-.00172-.06728-.00172h-.00439a77.50169,77.50169,0,0,0-52.00059,19.95579v6.17726h51.97814l.02684-.00069.02719.00069h-.00017c.71073.00026,1.41526.026,2.119.05437V321.70474C475.2839,321.686,474.59519,321.65088,473.898,321.65019Z" style="fill: url(#linear-gradient)"></path>
      <path d="M475.9766,321.70479v26.1311a52.26134,52.26134,0,1,1-54.40918,52.2262h.03736V269.29585c0-.02393-.00171-.04736-.00171-.07129a78.42141,78.42141,0,1,0-153.13672,23.892L291.79008,278.885a52.26583,52.26583,0,1,1,103.647-9.58911h-.03735V400.06209c0,.02392.00171.04736.00171.07128a78.42139,78.42139,0,1,0,80.57519-78.42858Z" style="fill: #f95461"></path>
      <path d="M343.20072,321.57637l-.02685.00073-.02735-.00073h.00025c-.81421-.00037-1.62281-.0249-2.42823-.06238l-.8789-.04443a52.28187,52.28187,0,0,1-48.04956-42.5846l-23.32373,14.23157a78.4415,78.4415,0,0,0,70.89209,54.46081l.00293.015,1.04077.04016c.05322.00183.10571.00659.15893.00842.061.00208.12207.00281.18311.00476l.41455.01612.00024-.00513c.64771.02295,1.29444.05054,1.94751.051.02271,0,.04468.0017.06739.0017h.00439a77.499,77.499,0,0,0,51.97608-19.93481v-6.19824Z" style="fill: url(#linear-gradient-2)"></path>
    </g>
  </g>
</svg>
